<svg width="16" height="16" viewBox="0 0 16 16" fill="none" xmlns="http://www.w3.org/2000/svg">
<path d="M7.97656 0C7.41406 0 6.97656 0.46875 6.97656 1V1.625C4.69531 2.0625 2.97656 4.09375 2.97656 6.5V7.09375C2.97656 8.5625 2.41406 10 1.44531 11.0938L1.22656 11.3438C0.945312 11.6562 0.882812 12.0625 1.03906 12.4375C1.19531 12.7812 1.57031 13 1.97656 13H13.9766C14.3516 13 14.7266 12.7812 14.8828 12.4375C15.0391 12.0625 14.9766 11.6562 14.6953 11.3438L14.4766 11.0938C13.5078 10 12.9766 8.5625 12.9766 7.09375V6.5C12.9766 4.09375 11.2578 2.0625 8.97656 1.625V1C8.97656 0.46875 8.50781 0 7.97656 0ZM9.38281 15.4375C9.75781 15.0625 9.97656 14.5312 9.97656 14H7.97656H5.97656C5.97656 14.5312 6.16406 15.0625 6.53906 15.4375C6.91406 15.8125 7.44531 16 7.97656 16C8.50781 16 9.00781 15.8125 9.38281 15.4375Z" fill="white"/>
</svg>
