<svg width="1621" height="46" viewBox="0 0 1621 46" fill="none" xmlns="http://www.w3.org/2000/svg">
<path d="M757.882 36V9.15376H764.371V30.7304H775.54V36H757.882ZM778.899 36V15.8653H785.309V36H778.899ZM782.11 13.5189C781.21 13.5189 780.437 13.2218 779.79 12.6275C779.143 12.0245 778.82 11.2992 778.82 10.4515C778.82 9.61256 779.143 8.89596 779.79 8.3017C780.437 7.69871 781.21 7.39722 782.11 7.39722C783.019 7.39722 783.792 7.69871 784.43 8.3017C785.077 8.89596 785.4 9.61256 785.4 10.4515C785.4 11.2992 785.077 12.0245 784.43 12.6275C783.792 13.2218 783.019 13.5189 782.11 13.5189ZM795.799 24.5169V36H789.389V15.8653H795.484V19.5619H795.707C796.153 18.3297 796.913 17.3641 797.988 16.6649C799.063 15.9571 800.343 15.6031 801.829 15.6031C803.244 15.6031 804.472 15.9221 805.512 16.5601C806.561 17.1893 807.374 18.0719 807.95 19.208C808.536 20.3353 808.824 21.6549 808.816 23.1668V36H802.405V24.4252C802.414 23.3066 802.13 22.4327 801.553 21.8035C800.985 21.1743 800.195 20.8597 799.181 20.8597C798.508 20.8597 797.914 21.0082 797.398 21.3054C796.891 21.5937 796.498 22.0088 796.218 22.5507C795.947 23.0925 795.808 23.7479 795.799 24.5169ZM818.565 30.7173L818.591 23.075H819.483L825.145 15.8653H832.408L823.992 26.1948H822.301L818.565 30.7173ZM812.784 36V9.15376H819.194V36H812.784ZM825.29 36L820.02 27.6368L824.241 23.0881L832.696 36H825.29ZM841.112 9.15376V36H834.702V9.15376H841.112ZM849.111 43.5505C848.342 43.5505 847.617 43.4893 846.935 43.367C846.253 43.2534 845.668 43.1004 845.179 42.9082L846.594 38.2547C847.224 38.4644 847.792 38.5867 848.298 38.6217C848.814 38.6567 849.255 38.5736 849.622 38.3726C849.998 38.1804 850.287 37.8352 850.488 37.3371L850.737 36.7341L843.579 15.8653H850.291L854.001 30.2323H854.21L857.972 15.8653H864.723L857.134 37.927C856.767 39.0281 856.247 39.9981 855.574 40.837C854.909 41.6847 854.049 42.3489 852.991 42.8295C851.943 43.3102 850.649 43.5505 849.111 43.5505Z" fill="url(#paint0_radial_104_1248)"/>
<path d="M113.65 18.446V14.777H115.41C115.595 14.777 115.774 14.8217 115.946 14.9112C116.122 14.9974 116.266 15.1267 116.379 15.299C116.495 15.468 116.553 15.6768 116.553 15.9254C116.553 16.174 116.493 16.3894 116.374 16.5717C116.258 16.7507 116.109 16.8883 115.927 16.9844C115.748 17.0805 115.562 17.1286 115.37 17.1286H114.008V16.6264H115.201C115.37 16.6264 115.521 16.5668 115.653 16.4474C115.789 16.3248 115.857 16.1508 115.857 15.9254C115.857 15.6934 115.789 15.5277 115.653 15.4283C115.521 15.3288 115.375 15.2791 115.216 15.2791H114.291V18.446H113.65ZM115.787 16.7408L116.702 18.446H115.986L115.096 16.7408H115.787ZM114.997 20.6335C114.447 20.6335 113.931 20.5308 113.451 20.3253C112.97 20.1198 112.548 19.8348 112.183 19.4702C111.818 19.1056 111.533 18.683 111.328 18.2024C111.122 17.7218 111.02 17.2064 111.02 16.6562C111.02 16.1061 111.122 15.5907 111.328 15.1101C111.533 14.6295 111.818 14.2069 112.183 13.8423C112.548 13.4777 112.97 13.1927 113.451 12.9872C113.931 12.7817 114.447 12.679 114.997 12.679C115.547 12.679 116.062 12.7817 116.543 12.9872C117.024 13.1927 117.446 13.4777 117.811 13.8423C118.175 14.2069 118.46 14.6295 118.666 15.1101C118.871 15.5907 118.974 16.1061 118.974 16.6562C118.974 17.2064 118.871 17.7218 118.666 18.2024C118.46 18.683 118.175 19.1056 117.811 19.4702C117.446 19.8348 117.024 20.1198 116.543 20.3253C116.062 20.5308 115.547 20.6335 114.997 20.6335ZM114.997 19.8928C115.593 19.8928 116.135 19.7469 116.623 19.4553C117.113 19.1636 117.504 18.7741 117.796 18.2869C118.088 17.7964 118.233 17.2528 118.233 16.6562C118.233 16.0597 118.088 15.5178 117.796 15.0305C117.504 14.54 117.113 14.1489 116.623 13.8572C116.135 13.5656 115.593 13.4197 114.997 13.4197C114.4 13.4197 113.857 13.5656 113.366 13.8572C112.879 14.1489 112.49 14.54 112.198 15.0305C111.906 15.5178 111.76 16.0597 111.76 16.6562C111.76 17.2528 111.906 17.7964 112.198 18.2869C112.49 18.7741 112.879 19.1636 113.366 19.4553C113.857 19.7469 114.4 19.8928 114.997 19.8928Z" fill="white" fill-opacity="0.5"/>
<defs>
<radialGradient id="paint0_radial_104_1248" cx="0" cy="0" r="1" gradientUnits="userSpaceOnUse" gradientTransform="translate(761.621 36.3458) rotate(-4.80508) scale(105.083 5704.61)">
<stop stop-color="#EB568E"/>
<stop offset="1" stop-color="#144EE3"/>
</radialGradient>
</defs>
</svg>
