<svg width="26" height="19" viewBox="0 0 26 19" fill="none" xmlns="http://www.w3.org/2000/svg">
<path d="M23.9922 9.5L19.1094 14.3828C17.1562 16.3359 13.9922 16.3359 12.0781 14.3828C10.2031 12.5078 10.0859 9.53906 11.8047 7.58594L12.0391 7.35156C12.2344 7.07812 12.6641 7.03906 12.8984 7.27344C13.1719 7.50781 13.2109 7.89844 12.9766 8.17188L12.7812 8.40625C11.4922 9.89062 11.5703 12.1172 12.9375 13.4844C14.4219 14.9688 16.7656 14.9688 18.25 13.4844L23.0938 8.64062C24.5781 7.15625 24.5781 4.8125 23.0938 3.32812C21.6484 1.88281 19.2656 1.88281 17.8203 3.32812L16.9219 4.22656C16.6875 4.46094 16.2969 4.46094 16.0234 4.22656C15.7891 3.95312 15.7891 3.5625 16.0234 3.32812L16.9219 2.42969C18.875 0.476562 22.0391 0.476562 23.9922 2.42969C25.9453 4.38281 25.9453 7.54688 23.9922 9.5ZM2.78125 9.5L7.66406 4.65625C9.61719 2.70312 12.7422 2.70312 14.7344 4.65625C16.5703 6.49219 16.6875 9.46094 14.9688 11.4531L14.7344 11.6875C14.5391 11.9609 14.1484 12 13.875 11.7656C13.6016 11.5312 13.5625 11.1406 13.7969 10.8672L14.0312 10.6328C15.2812 9.14844 15.2031 6.92188 13.8359 5.55469C12.3516 4.07031 10.0078 4.07031 8.52344 5.55469L3.67969 10.3984C2.19531 11.8828 2.19531 14.2266 3.67969 15.7109C5.125 17.1562 7.50781 17.1562 8.95312 15.7109L9.85156 14.8125C10.0859 14.5781 10.4766 14.5781 10.75 14.8125C10.9844 15.0469 10.9844 15.4766 10.75 15.7109L9.85156 16.5703C7.89844 18.5234 4.73438 18.5234 2.78125 16.5703C0.828125 14.6172 0.828125 11.4531 2.78125 9.5Z" fill="#C9CED6"/>
</svg>
