<svg width="102" height="102" viewBox="0 0 102 102" fill="none" xmlns="http://www.w3.org/2000/svg">
<g filter="url(#filter0_d_1_164)">
<rect x="12" y="13" width="58" height="58" rx="29" fill="#144EE3" shape-rendering="crispEdges"/>
<rect x="12.5" y="13.5" width="57" height="57" rx="28.5" stroke="#144EE3" shape-rendering="crispEdges"/>
<path d="M47.6641 42.7188C48.0703 42.3438 48.0703 41.6875 47.6641 41.3125L42.6641 36.3125C42.2891 35.9062 41.6328 35.9062 41.2578 36.3125C40.8516 36.6875 40.8516 37.3438 41.2578 37.7188L44.5391 41H34.9766C34.4141 41 33.9766 41.4688 33.9766 42C33.9766 42.5625 34.4141 43 34.9766 43H44.5391L41.2578 46.3125C40.8516 46.6875 40.8516 47.3438 41.2578 47.7188C41.6328 48.125 42.2891 48.125 42.6641 47.7188L47.6641 42.7188Z" fill="white"/>
</g>
<defs>
<filter id="filter0_d_1_164" x="0" y="0" width="102" height="102" filterUnits="userSpaceOnUse" color-interpolation-filters="sRGB">
<feFlood flood-opacity="0" result="BackgroundImageFix"/>
<feColorMatrix in="SourceAlpha" type="matrix" values="0 0 0 0 0 0 0 0 0 0 0 0 0 0 0 0 0 0 127 0" result="hardAlpha"/>
<feOffset dx="10" dy="9"/>
<feGaussianBlur stdDeviation="11"/>
<feComposite in2="hardAlpha" operator="out"/>
<feColorMatrix type="matrix" values="0 0 0 0 0.0784314 0 0 0 0 0.305882 0 0 0 0 0.890196 0 0 0 0.38 0"/>
<feBlend mode="normal" in2="BackgroundImageFix" result="effect1_dropShadow_1_164"/>
<feBlend mode="normal" in="SourceGraphic" in2="effect1_dropShadow_1_164" result="shape"/>
</filter>
</defs>
</svg>
