<svg width="967" height="81" viewBox="0 0 967 81" fill="none" xmlns="http://www.w3.org/2000/svg">
<path d="M64.9595 31.446C64.8175 29.8835 64.1854 28.669 63.0632 27.8026C61.9553 26.9219 60.3714 26.4815 58.3118 26.4815C56.9482 26.4815 55.8118 26.6591 54.9027 27.0142C53.9936 27.3693 53.3118 27.8594 52.8572 28.4844C52.4027 29.0952 52.1683 29.7983 52.1541 30.5938C52.1257 31.2472 52.2536 31.8224 52.5376 32.3196C52.8359 32.8168 53.2621 33.2571 53.8161 33.6406C54.3842 34.0099 55.0661 34.3366 55.8615 34.6207C56.657 34.9048 57.5518 35.1534 58.5462 35.3665L62.2962 36.2188C64.4553 36.6875 66.3587 37.3125 68.0064 38.0938C69.6683 38.875 71.0604 39.8054 72.1825 40.8849C73.3189 41.9645 74.1783 43.2074 74.7607 44.6136C75.343 46.0199 75.6413 47.5966 75.6555 49.3438C75.6413 52.0994 74.9453 54.4645 73.5675 56.4389C72.1896 58.4134 70.2081 59.9261 67.6229 60.9773C65.0518 62.0284 61.9482 62.554 58.3118 62.554C54.6612 62.554 51.4794 62.0071 48.7663 60.9134C46.0533 59.8196 43.9439 58.1577 42.4382 55.9276C40.9325 53.6974 40.1584 50.8778 40.1158 47.4688H50.2152C50.3004 48.875 50.6768 50.0469 51.3445 50.9844C52.0121 51.9219 52.9283 52.6321 54.093 53.1151C55.272 53.598 56.6357 53.8395 58.1839 53.8395C59.6044 53.8395 60.8118 53.6477 61.8061 53.2642C62.8146 52.8807 63.5888 52.348 64.1286 51.6662C64.6683 50.9844 64.9453 50.2031 64.9595 49.3224C64.9453 48.4986 64.6896 47.7955 64.1925 47.2131C63.6953 46.6165 62.9283 46.1051 61.8913 45.679C60.8686 45.2386 59.5618 44.8338 57.9709 44.4645L53.4112 43.3991C49.6328 42.5327 46.657 41.1335 44.4837 39.2017C42.3104 37.2557 41.2308 34.6278 41.245 31.3182C41.2308 28.6193 41.9553 26.2543 43.4183 24.223C44.8814 22.1918 46.9055 20.608 49.4908 19.4716C52.076 18.3352 55.0234 17.767 58.3331 17.767C61.7138 17.767 64.647 18.3423 67.1328 19.4929C69.6328 20.6293 71.5717 22.2273 72.9496 24.2869C74.3274 26.3466 75.0305 28.733 75.059 31.446H64.9595ZM91.4013 43.3352V62H80.9822V18.3636H91.0604V35.2812H91.4226C92.1612 33.2642 93.3686 31.6875 95.0447 30.5511C96.7351 29.4148 98.8018 28.8466 101.245 28.8466C103.546 28.8466 105.549 29.358 107.254 30.3807C108.958 31.3892 110.279 32.8168 111.217 34.6634C112.168 36.5099 112.637 38.669 112.623 41.1406V62H102.204V43.1861C102.218 41.3679 101.763 39.9474 100.84 38.9247C99.9169 37.902 98.6172 37.3906 96.9411 37.3906C95.8473 37.3906 94.8814 37.6321 94.0433 38.1151C93.2195 38.5838 92.5732 39.2585 92.1044 40.1392C91.6499 41.0199 91.4155 42.0852 91.4013 43.3352ZM134.404 62.6179C130.966 62.6179 128.012 61.9148 125.54 60.5085C123.083 59.0881 121.186 57.1136 119.851 54.5852C118.53 52.0426 117.87 49.0952 117.87 45.7429C117.87 42.3764 118.53 39.429 119.851 36.9006C121.186 34.358 123.083 32.3835 125.54 30.9773C128.012 29.5568 130.966 28.8466 134.404 28.8466C137.841 28.8466 140.789 29.5568 143.246 30.9773C145.718 32.3835 147.614 34.358 148.935 36.9006C150.27 39.429 150.938 42.3764 150.938 45.7429C150.938 49.0952 150.27 52.0426 148.935 54.5852C147.614 57.1136 145.718 59.0881 143.246 60.5085C140.789 61.9148 137.841 62.6179 134.404 62.6179ZM134.468 54.7557C135.718 54.7557 136.776 54.3722 137.642 53.6051C138.509 52.8381 139.169 51.7727 139.624 50.4091C140.093 49.0455 140.327 47.4687 140.327 45.679C140.327 43.8608 140.093 42.2699 139.624 40.9062C139.169 39.5426 138.509 38.4773 137.642 37.7102C136.776 36.9432 135.718 36.5597 134.468 36.5597C133.175 36.5597 132.081 36.9432 131.186 37.7102C130.306 38.4773 129.631 39.5426 129.162 40.9062C128.708 42.2699 128.48 43.8608 128.48 45.679C128.48 47.4687 128.708 49.0455 129.162 50.4091C129.631 51.7727 130.306 52.8381 131.186 53.6051C132.081 54.3722 133.175 54.7557 134.468 54.7557ZM156.275 62V29.2727H166.396V35.2386H166.737C167.333 33.0795 168.306 31.4744 169.656 30.4233C171.005 29.358 172.575 28.8253 174.365 28.8253C174.848 28.8253 175.345 28.8608 175.856 28.9318C176.368 28.9886 176.843 29.081 177.284 29.2088V38.2642C176.787 38.0937 176.133 37.9588 175.324 37.8594C174.528 37.7599 173.818 37.7102 173.193 37.7102C171.957 37.7102 170.842 37.9872 169.848 38.5412C168.868 39.081 168.093 39.8409 167.525 40.821C166.971 41.7869 166.694 42.9233 166.694 44.2301V62H156.275ZM201.526 29.2727V36.9432H180.879V29.2727H201.526ZM185.205 21.4318H195.624V51.7088C195.624 52.348 195.723 52.8665 195.922 53.2642C196.135 53.6477 196.44 53.9247 196.838 54.0952C197.236 54.2514 197.712 54.3295 198.266 54.3295C198.663 54.3295 199.082 54.294 199.523 54.223C199.977 54.1378 200.318 54.0668 200.545 54.0099L202.122 61.5312C201.625 61.6733 200.922 61.8509 200.013 62.0639C199.118 62.277 198.045 62.4119 196.795 62.4688C194.352 62.5824 192.257 62.2983 190.51 61.6165C188.777 60.9205 187.449 59.8409 186.526 58.3778C185.616 56.9148 185.176 55.0753 185.205 52.8594V21.4318ZM221.788 62.6179C218.365 62.6179 215.411 61.9432 212.925 60.5938C210.453 59.2301 208.55 57.2912 207.214 54.777C205.893 52.2486 205.233 49.2443 205.233 45.7642C205.233 42.3835 205.901 39.429 207.236 36.9006C208.571 34.358 210.453 32.3835 212.882 30.9773C215.311 29.5568 218.173 28.8466 221.469 28.8466C223.798 28.8466 225.929 29.2088 227.861 29.9332C229.793 30.6577 231.462 31.7301 232.868 33.1506C234.274 34.571 235.368 36.3253 236.149 38.4134C236.93 40.4872 237.321 42.8665 237.321 45.5511V48.1506H208.876V42.0994H227.626C227.612 40.9915 227.349 40.0043 226.838 39.1378C226.327 38.2713 225.624 37.5966 224.729 37.1136C223.848 36.6165 222.832 36.3679 221.682 36.3679C220.517 36.3679 219.473 36.6307 218.55 37.1562C217.626 37.6676 216.895 38.3707 216.355 39.2656C215.815 40.1463 215.531 41.1477 215.503 42.2699V48.4276C215.503 49.7628 215.766 50.9347 216.291 51.9432C216.817 52.9375 217.562 53.7116 218.528 54.2656C219.494 54.8196 220.645 55.0966 221.98 55.0966C222.903 55.0966 223.741 54.9687 224.494 54.7131C225.247 54.4574 225.893 54.081 226.433 53.5838C226.973 53.0866 227.378 52.4759 227.648 51.7514L237.214 52.0284C236.817 54.1733 235.943 56.0412 234.594 57.6321C233.259 59.2088 231.504 60.4375 229.331 61.3182C227.158 62.1847 224.643 62.6179 221.788 62.6179ZM253.061 43.3352V62H242.642V29.2727H252.55V35.2812H252.912C253.637 33.2784 254.873 31.7088 256.62 30.5724C258.367 29.4219 260.448 28.8466 262.863 28.8466C265.164 28.8466 267.159 29.3651 268.85 30.402C270.554 31.4247 271.875 32.8594 272.813 34.706C273.765 36.5384 274.233 38.6832 274.219 41.1406V62H263.8V43.1861C263.814 41.3679 263.353 39.9474 262.415 38.9247C261.492 37.902 260.206 37.3906 258.559 37.3906C257.465 37.3906 256.499 37.6321 255.661 38.1151C254.837 38.5838 254.198 39.2585 253.743 40.1392C253.303 41.0199 253.076 42.0852 253.061 43.3352ZM291.387 18.3636H303.17L312.396 36.6236H312.779L322.005 18.3636H333.788L317.829 47.4261V62H307.346V47.4261L291.387 18.3636ZM345.927 62.6179C342.49 62.6179 339.535 61.9148 337.064 60.5085C334.606 59.0881 332.71 57.1136 331.375 54.5852C330.054 52.0426 329.393 49.0952 329.393 45.7429C329.393 42.3764 330.054 39.429 331.375 36.9006C332.71 34.358 334.606 32.3835 337.064 30.9773C339.535 29.5568 342.49 28.8466 345.927 28.8466C349.365 28.8466 352.312 29.5568 354.77 30.9773C357.241 32.3835 359.137 34.358 360.458 36.9006C361.794 39.429 362.461 42.3764 362.461 45.7429C362.461 49.0952 361.794 52.0426 360.458 54.5852C359.137 57.1136 357.241 59.0881 354.77 60.5085C352.312 61.9148 349.365 62.6179 345.927 62.6179ZM345.991 54.7557C347.241 54.7557 348.299 54.3722 349.166 53.6051C350.032 52.8381 350.693 51.7727 351.147 50.4091C351.616 49.0455 351.85 47.4687 351.85 45.679C351.85 43.8608 351.616 42.2699 351.147 40.9062C350.693 39.5426 350.032 38.4773 349.166 37.7102C348.299 36.9432 347.241 36.5597 345.991 36.5597C344.699 36.5597 343.605 36.9432 342.71 37.7102C341.829 38.4773 341.154 39.5426 340.686 40.9062C340.231 42.2699 340.004 43.8608 340.004 45.679C340.004 47.4687 340.231 49.0455 340.686 50.4091C341.154 51.7727 341.829 52.8381 342.71 53.6051C343.605 54.3722 344.699 54.7557 345.991 54.7557ZM388.914 47.8736V29.2727H399.311V62H389.382V55.9062H389.042C388.317 57.9091 387.081 59.5 385.334 60.679C383.601 61.8437 381.506 62.4261 379.049 62.4261C376.819 62.4261 374.858 61.9148 373.168 60.892C371.478 59.8693 370.164 58.4418 369.226 56.6094C368.289 54.7628 367.813 52.6037 367.799 50.1321V29.2727H378.218V48.0866C378.232 49.8622 378.701 51.2614 379.624 52.2841C380.547 53.3068 381.804 53.8182 383.395 53.8182C384.432 53.8182 385.363 53.5909 386.186 53.1364C387.025 52.6676 387.685 51.9929 388.168 51.1122C388.665 50.2173 388.914 49.1378 388.914 47.8736ZM405.943 62V29.2727H416.064V35.2386H416.405C417.001 33.0795 417.974 31.4744 419.324 30.4233C420.673 29.358 422.243 28.8253 424.033 28.8253C424.516 28.8253 425.013 28.8608 425.524 28.9318C426.036 28.9886 426.511 29.081 426.952 29.2088V38.2642C426.455 38.0937 425.801 37.9588 424.991 37.8594C424.196 37.7599 423.486 37.7102 422.861 37.7102C421.625 37.7102 420.51 37.9872 419.516 38.5412C418.536 39.081 417.761 39.8409 417.193 40.821C416.639 41.7869 416.362 42.9233 416.362 44.2301V62H405.943ZM444.088 62V18.3636H454.635V53.4347H472.788V62H444.088ZM493.525 62.6179C490.087 62.6179 487.133 61.9148 484.661 60.5085C482.204 59.0881 480.308 57.1136 478.972 54.5852C477.651 52.0426 476.991 49.0952 476.991 45.7429C476.991 42.3764 477.651 39.429 478.972 36.9006C480.308 34.358 482.204 32.3835 484.661 30.9773C487.133 29.5568 490.087 28.8466 493.525 28.8466C496.962 28.8466 499.91 29.5568 502.367 30.9773C504.839 32.3835 506.735 34.358 508.056 36.9006C509.391 39.429 510.059 42.3764 510.059 45.7429C510.059 49.0952 509.391 52.0426 508.056 54.5852C506.735 57.1136 504.839 59.0881 502.367 60.5085C499.91 61.9148 496.962 62.6179 493.525 62.6179ZM493.589 54.7557C494.839 54.7557 495.897 54.3722 496.763 53.6051C497.63 52.8381 498.29 51.7727 498.745 50.4091C499.214 49.0455 499.448 47.4687 499.448 45.679C499.448 43.8608 499.214 42.2699 498.745 40.9062C498.29 39.5426 497.63 38.4773 496.763 37.7102C495.897 36.9432 494.839 36.5597 493.589 36.5597C492.296 36.5597 491.202 36.9432 490.308 37.7102C489.427 38.4773 488.752 39.5426 488.283 40.9062C487.829 42.2699 487.602 43.8608 487.602 45.679C487.602 47.4687 487.829 49.0455 488.283 50.4091C488.752 51.7727 489.427 52.8381 490.308 53.6051C491.202 54.3722 492.296 54.7557 493.589 54.7557ZM530.673 62.6179C527.236 62.6179 524.281 61.9148 521.81 60.5085C519.352 59.0881 517.456 57.1136 516.121 54.5852C514.8 52.0426 514.139 49.0952 514.139 45.7429C514.139 42.3764 514.8 39.429 516.121 36.9006C517.456 34.358 519.352 32.3835 521.81 30.9773C524.281 29.5568 527.236 28.8466 530.673 28.8466C534.111 28.8466 537.058 29.5568 539.516 30.9773C541.987 32.3835 543.884 34.358 545.205 36.9006C546.54 39.429 547.207 42.3764 547.207 45.7429C547.207 49.0952 546.54 52.0426 545.205 54.5852C543.884 57.1136 541.987 59.0881 539.516 60.5085C537.058 61.9148 534.111 62.6179 530.673 62.6179ZM530.737 54.7557C531.987 54.7557 533.045 54.3722 533.912 53.6051C534.778 52.8381 535.439 51.7727 535.893 50.4091C536.362 49.0455 536.597 47.4687 536.597 45.679C536.597 43.8608 536.362 42.2699 535.893 40.9062C535.439 39.5426 534.778 38.4773 533.912 37.7102C533.045 36.9432 531.987 36.5597 530.737 36.5597C529.445 36.5597 528.351 36.9432 527.456 37.7102C526.575 38.4773 525.901 39.5426 525.432 40.9062C524.977 42.2699 524.75 43.8608 524.75 45.679C524.75 47.4687 524.977 49.0455 525.432 50.4091C525.901 51.7727 526.575 52.8381 527.456 53.6051C528.351 54.3722 529.445 54.7557 530.737 54.7557ZM567.822 62.6179C564.384 62.6179 561.43 61.9148 558.958 60.5085C556.501 59.0881 554.604 57.1136 553.269 54.5852C551.948 52.0426 551.288 49.0952 551.288 45.7429C551.288 42.3764 551.948 39.429 553.269 36.9006C554.604 34.358 556.501 32.3835 558.958 30.9773C561.43 29.5568 564.384 28.8466 567.822 28.8466C571.259 28.8466 574.207 29.5568 576.664 30.9773C579.136 32.3835 581.032 34.358 582.353 36.9006C583.688 39.429 584.356 42.3764 584.356 45.7429C584.356 49.0952 583.688 52.0426 582.353 54.5852C581.032 57.1136 579.136 59.0881 576.664 60.5085C574.207 61.9148 571.259 62.6179 567.822 62.6179ZM567.886 54.7557C569.136 54.7557 570.194 54.3722 571.06 53.6051C571.927 52.8381 572.587 51.7727 573.042 50.4091C573.511 49.0455 573.745 47.4687 573.745 45.679C573.745 43.8608 573.511 42.2699 573.042 40.9062C572.587 39.5426 571.927 38.4773 571.06 37.7102C570.194 36.9432 569.136 36.5597 567.886 36.5597C566.593 36.5597 565.499 36.9432 564.604 37.7102C563.724 38.4773 563.049 39.5426 562.58 40.9062C562.126 42.2699 561.898 43.8608 561.898 45.679C561.898 47.4687 562.126 49.0455 562.58 50.4091C563.049 51.7727 563.724 52.8381 564.604 53.6051C565.499 54.3722 566.593 54.7557 567.886 54.7557ZM604.97 62.6179C601.533 62.6179 598.578 61.9148 596.107 60.5085C593.649 59.0881 591.753 57.1136 590.418 54.5852C589.097 52.0426 588.436 49.0952 588.436 45.7429C588.436 42.3764 589.097 39.429 590.418 36.9006C591.753 34.358 593.649 32.3835 596.107 30.9773C598.578 29.5568 601.533 28.8466 604.97 28.8466C608.408 28.8466 611.355 29.5568 613.812 30.9773C616.284 32.3835 618.18 34.358 619.501 36.9006C620.837 39.429 621.504 42.3764 621.504 45.7429C621.504 49.0952 620.837 52.0426 619.501 54.5852C618.18 57.1136 616.284 59.0881 613.812 60.5085C611.355 61.9148 608.408 62.6179 604.97 62.6179ZM605.034 54.7557C606.284 54.7557 607.342 54.3722 608.209 53.6051C609.075 52.8381 609.736 51.7727 610.19 50.4091C610.659 49.0455 610.893 47.4687 610.893 45.679C610.893 43.8608 610.659 42.2699 610.19 40.9062C609.736 39.5426 609.075 38.4773 608.209 37.7102C607.342 36.9432 606.284 36.5597 605.034 36.5597C603.741 36.5597 602.648 36.9432 601.753 37.7102C600.872 38.4773 600.197 39.5426 599.729 40.9062C599.274 42.2699 599.047 43.8608 599.047 45.679C599.047 47.4687 599.274 49.0455 599.729 50.4091C600.197 51.7727 600.872 52.8381 601.753 53.6051C602.648 54.3722 603.741 54.7557 605.034 54.7557ZM637.261 43.3352V62H626.842V29.2727H636.749V35.2812H637.112C637.836 33.2784 639.072 31.7088 640.819 30.5724C642.566 29.4219 644.647 28.8466 647.062 28.8466C649.363 28.8466 651.359 29.3651 653.049 30.402C654.754 31.4247 656.075 32.8594 657.012 34.706C657.964 36.5384 658.433 38.6832 658.418 41.1406V62H647.999V43.1861C648.013 41.3679 647.552 39.9474 646.614 38.9247C645.691 37.902 644.406 37.3906 642.758 37.3906C641.664 37.3906 640.698 37.6321 639.86 38.1151C639.036 38.5838 638.397 39.2585 637.942 40.1392C637.502 41.0199 637.275 42.0852 637.261 43.3352ZM680.125 74.9545C677.014 74.9545 674.35 74.5213 672.135 73.6548C669.919 72.7884 668.179 71.6023 666.914 70.0966C665.65 68.5909 664.89 66.8864 664.635 64.983L674.5 64.429C674.684 65.0966 675.025 65.679 675.522 66.1761C676.034 66.6733 676.694 67.0568 677.504 67.3267C678.328 67.5966 679.294 67.7315 680.402 67.7315C682.149 67.7315 683.591 67.3054 684.727 66.4531C685.877 65.6151 686.453 64.1449 686.453 62.0426V56.2898H686.091C685.679 57.2983 685.054 58.2003 684.216 58.9957C683.377 59.7912 682.333 60.4162 681.083 60.8707C679.848 61.3253 678.427 61.5526 676.822 61.5526C674.436 61.5526 672.248 60.9986 670.26 59.8906C668.285 58.7685 666.701 57.0355 665.508 54.6918C664.329 52.3338 663.74 49.3011 663.74 45.5938C663.74 41.7727 664.35 38.6264 665.572 36.1548C666.794 33.669 668.392 31.8295 670.366 30.6364C672.355 29.4432 674.493 28.8466 676.779 28.8466C678.498 28.8466 679.968 29.1449 681.19 29.7415C682.426 30.3239 683.441 31.0767 684.237 32C685.032 32.9233 685.636 33.8821 686.048 34.8764H686.346V29.2727H696.723V62.1278C696.723 64.8977 696.027 67.2344 694.635 69.1378C693.243 71.0412 691.297 72.483 688.797 73.4631C686.297 74.4574 683.406 74.9545 680.125 74.9545ZM680.444 53.9673C681.708 53.9673 682.788 53.6335 683.683 52.9659C684.578 52.2983 685.267 51.3395 685.75 50.0895C686.233 48.8395 686.474 47.3409 686.474 45.5938C686.474 43.8182 686.233 42.2912 685.75 41.0128C685.281 39.7202 684.592 38.7259 683.683 38.0298C682.788 37.3338 681.708 36.9858 680.444 36.9858C679.152 36.9858 678.058 37.3409 677.163 38.0511C676.268 38.7614 675.586 39.7628 675.118 41.0554C674.663 42.3338 674.436 43.8466 674.436 45.5938C674.436 47.3409 674.67 48.8395 675.139 50.0895C675.608 51.3395 676.282 52.2983 677.163 52.9659C678.058 53.6335 679.152 53.9673 680.444 53.9673ZM716.256 62V18.3636H726.803V53.4347H744.956V62H716.256ZM750.416 62V29.2727H760.835V62H750.416ZM755.636 25.4588C754.173 25.4588 752.916 24.9759 751.865 24.0099C750.814 23.0298 750.288 21.8509 750.288 20.473C750.288 19.1094 750.814 17.9446 751.865 16.9787C752.916 15.9986 754.173 15.5085 755.636 15.5085C757.113 15.5085 758.37 15.9986 759.407 16.9787C760.458 17.9446 760.984 19.1094 760.984 20.473C760.984 21.8509 760.458 23.0298 759.407 24.0099C758.37 24.9759 757.113 25.4588 755.636 25.4588ZM777.886 43.3352V62H767.467V29.2727H777.374V35.2812H777.737C778.461 33.2784 779.697 31.7088 781.444 30.5724C783.191 29.4219 785.272 28.8466 787.687 28.8466C789.988 28.8466 791.984 29.3651 793.674 30.402C795.379 31.4247 796.7 32.8594 797.637 34.706C798.589 36.5384 799.058 38.6832 799.043 41.1406V62H788.624V43.1861C788.638 41.3679 788.177 39.9474 787.239 38.9247C786.316 37.902 785.031 37.3906 783.383 37.3906C782.289 37.3906 781.323 37.6321 780.485 38.1151C779.661 38.5838 779.022 39.2585 778.567 40.1392C778.127 41.0199 777.9 42.0852 777.886 43.3352ZM814.89 53.4134L814.933 40.9915H816.382L825.586 29.2727H837.39L823.711 46.0625H820.963L814.89 53.4134ZM805.494 62V18.3636H815.913V62H805.494ZM825.821 62L817.255 48.4062L824.116 41.0128L837.859 62H825.821ZM869.691 39.2656L860.125 39.5213C860.025 38.8395 859.755 38.2358 859.315 37.7102C858.875 37.1705 858.299 36.7514 857.589 36.4531C856.893 36.1406 856.083 35.9844 855.16 35.9844C853.953 35.9844 852.923 36.2259 852.071 36.7088C851.233 37.1918 850.821 37.8452 850.835 38.669C850.821 39.3082 851.076 39.8622 851.602 40.331C852.142 40.7997 853.1 41.1761 854.478 41.4602L860.785 42.6534C864.052 43.2784 866.481 44.3153 868.072 45.7642C869.677 47.2131 870.487 49.1307 870.501 51.517C870.487 53.7614 869.819 55.7145 868.498 57.3764C867.191 59.0384 865.402 60.331 863.129 61.2543C860.856 62.1634 858.257 62.6179 855.331 62.6179C850.657 62.6179 846.971 61.6591 844.272 59.7415C841.588 57.8097 840.054 55.2244 839.67 51.9858L849.961 51.7301C850.189 52.9233 850.778 53.8324 851.73 54.4574C852.681 55.0824 853.896 55.3949 855.373 55.3949C856.708 55.3949 857.795 55.1463 858.633 54.6491C859.471 54.152 859.897 53.4915 859.912 52.6676C859.897 51.929 859.571 51.3395 858.931 50.8991C858.292 50.4446 857.291 50.0895 855.927 49.8338L850.217 48.7472C846.936 48.1506 844.493 47.0497 842.887 45.4446C841.282 43.8253 840.487 41.7656 840.501 39.2656C840.487 37.0781 841.069 35.2102 842.248 33.6619C843.427 32.0994 845.103 30.9063 847.277 30.0824C849.45 29.2585 852.014 28.8466 854.968 28.8466C859.4 28.8466 862.895 29.777 865.451 31.6378C868.008 33.4844 869.422 36.027 869.691 39.2656ZM894.381 62.6179C892.847 62.6179 891.533 62.0781 890.439 60.9986C889.359 59.919 888.827 58.6122 888.841 57.0781C888.827 55.5724 889.359 54.2869 890.439 53.2216C891.533 52.142 892.847 51.6023 894.381 51.6023C895.83 51.6023 897.108 52.142 898.216 53.2216C899.338 54.2869 899.906 55.5724 899.92 57.0781C899.906 58.1009 899.636 59.0312 899.111 59.8693C898.599 60.7074 897.925 61.375 897.087 61.8722C896.263 62.3693 895.361 62.6179 894.381 62.6179ZM894.381 40.1605C892.847 40.1605 891.533 39.6278 890.439 38.5625C889.359 37.483 888.827 36.169 888.841 34.6207C888.827 33.1151 889.359 31.8295 890.439 30.7642C891.533 29.6847 892.847 29.1449 894.381 29.1449C895.83 29.1449 897.108 29.6847 898.216 30.7642C899.338 31.8295 899.906 33.1151 899.92 34.6207C899.906 35.6435 899.636 36.5739 899.111 37.4119C898.599 38.25 897.925 38.9176 897.087 39.4148C896.263 39.9119 895.361 40.1605 894.381 40.1605ZM923.614 44.8267C923.614 50.0824 922.903 54.9261 921.483 59.358C920.063 63.7756 917.847 67.8807 914.835 71.6733H904.736C905.886 70.267 906.945 68.5554 907.911 66.5384C908.891 64.5213 909.736 62.3125 910.446 59.9119C911.17 57.5114 911.732 55.0256 912.129 52.4545C912.541 49.8835 912.747 47.3409 912.747 44.8267C912.747 41.4602 912.399 38.0724 911.703 34.6634C911.007 31.2401 910.055 28.0724 908.848 25.1605C907.641 22.2344 906.27 19.8338 904.736 17.9588H914.835C917.847 21.7514 920.063 25.8636 921.483 30.2955C922.903 34.7131 923.614 39.5568 923.614 44.8267Z" fill="url(#paint0_linear_1_75)"/>
<defs>
<linearGradient id="paint0_linear_1_75" x1="37.5969" y1="63.9999" x2="935.812" y2="49.5809" gradientUnits="userSpaceOnUse">
<stop stop-color="#144EE3"/>
<stop offset="0.1875" stop-color="#EB568E"/>
<stop offset="0.640625" stop-color="#A353AA"/>
<stop offset="1" stop-color="#144EE3"/>
</linearGradient>
</defs>
</svg>
