<svg width="281" height="75" viewBox="0 0 281 75" fill="none" xmlns="http://www.w3.org/2000/svg">
<path d="M42.9866 8.17685C42.9037 7.26539 42.535 6.55694 41.8804 6.05149C41.2341 5.53776 40.3102 5.28089 39.1088 5.28089C38.3133 5.28089 37.6504 5.38447 37.1201 5.59162C36.5898 5.79877 36.1921 6.08464 35.9269 6.44922C35.6618 6.80552 35.5251 7.21567 35.5168 7.67969C35.5002 8.06084 35.5748 8.39642 35.7405 8.68643C35.9145 8.97644 36.1631 9.23331 36.4863 9.45703C36.8177 9.67247 37.2154 9.86304 37.6794 10.0288C38.1435 10.1945 38.6655 10.3395 39.2455 10.4638L41.433 10.9609C42.6925 11.2344 43.8028 11.599 44.764 12.0547C45.7334 12.5104 46.5454 13.0531 47.2 13.6829C47.8629 14.3126 48.3642 15.0376 48.7039 15.858C49.0437 16.6783 49.2177 17.598 49.226 18.6172C49.2177 20.2247 48.8117 21.6043 48.0079 22.756C47.2042 23.9078 46.0483 24.7902 44.5402 25.4034C43.0405 26.0166 41.23 26.3232 39.1088 26.3232C36.9793 26.3232 35.1232 26.0041 33.5406 25.3661C31.958 24.7281 30.7275 23.7586 29.8492 22.4577C28.9709 21.1568 28.5193 19.5121 28.4944 17.5234H34.3858C34.4355 18.3438 34.6551 19.0273 35.0445 19.5742C35.4339 20.1211 35.9684 20.5354 36.6478 20.8171C37.3356 21.0988 38.131 21.2397 39.0342 21.2397C39.8628 21.2397 40.5671 21.1278 41.1471 20.9041C41.7354 20.6804 42.187 20.3697 42.5019 19.9719C42.8167 19.5742 42.9783 19.1185 42.9866 18.6048C42.9783 18.1242 42.8292 17.714 42.5392 17.3743C42.2492 17.0263 41.8017 16.728 41.1968 16.4794C40.6002 16.2225 39.8379 15.9864 38.9099 15.771L36.2501 15.1495C34.046 14.6441 32.3101 13.8279 31.0424 12.701C29.7746 11.5658 29.1449 10.0329 29.1532 8.10227C29.1449 6.52794 29.5675 5.14832 30.4209 3.96342C31.2744 2.77853 32.4551 1.85464 33.9632 1.19176C35.4712 0.528882 37.1906 0.197442 39.1212 0.197442C41.0933 0.197442 42.8043 0.533024 44.2544 1.20419C45.7127 1.86707 46.8437 2.79924 47.6475 4.00071C48.4512 5.20218 48.8614 6.59422 48.8779 8.17685H42.9866ZM58.411 15.1122V26H52.3332V0.545454H58.2121V10.4141H58.4234C58.8543 9.23745 59.5586 8.31771 60.5363 7.65483C61.5224 6.99195 62.728 6.66051 64.1532 6.66051C65.4955 6.66051 66.6638 6.95881 67.6581 7.5554C68.6524 8.1437 69.423 8.97644 69.9699 10.0536C70.5251 11.1308 70.7985 12.3903 70.7902 13.832V26H64.7125V15.0252C64.7207 13.9646 64.4556 13.136 63.917 12.5394C63.3784 11.9428 62.6203 11.6445 61.6425 11.6445C61.0045 11.6445 60.441 11.7854 59.9522 12.0671C59.4716 12.3406 59.0946 12.7341 58.8211 13.2479C58.556 13.7616 58.4193 14.383 58.411 15.1122ZM83.4958 26.3604C81.4905 26.3604 79.7671 25.9503 78.3253 25.13C76.8918 24.3014 75.7856 23.1496 75.0068 21.6747C74.2362 20.1915 73.8509 18.4722 73.8509 16.5167C73.8509 14.5529 74.2362 12.8336 75.0068 11.3587C75.7856 9.87547 76.8918 8.72372 78.3253 7.90341C79.7671 7.07481 81.4905 6.66051 83.4958 6.66051C85.501 6.66051 87.2203 7.07481 88.6538 7.90341C90.0955 8.72372 91.2017 9.87547 91.9723 11.3587C92.7512 12.8336 93.1406 14.5529 93.1406 16.5167C93.1406 18.4722 92.7512 20.1915 91.9723 21.6747C91.2017 23.1496 90.0955 24.3014 88.6538 25.13C87.2203 25.9503 85.501 26.3604 83.4958 26.3604ZM83.533 21.7741C84.2622 21.7741 84.8795 21.5504 85.385 21.103C85.8904 20.6555 86.2757 20.0341 86.5409 19.2386C86.8143 18.4432 86.951 17.5234 86.951 16.4794C86.951 15.4188 86.8143 14.4908 86.5409 13.6953C86.2757 12.8999 85.8904 12.2784 85.385 11.831C84.8795 11.3835 84.2622 11.1598 83.533 11.1598C82.779 11.1598 82.141 11.3835 81.619 11.831C81.1052 12.2784 80.7117 12.8999 80.4382 13.6953C80.1731 14.4908 80.0405 15.4188 80.0405 16.4794C80.0405 17.5234 80.1731 18.4432 80.4382 19.2386C80.7117 20.0341 81.1052 20.6555 81.619 21.103C82.141 21.5504 82.779 21.7741 83.533 21.7741ZM96.2541 26V6.90909H102.158V10.3892H102.357C102.705 9.12973 103.272 8.19342 104.059 7.58025C104.847 6.95881 105.762 6.64808 106.806 6.64808C107.088 6.64808 107.378 6.6688 107.676 6.71023C107.975 6.74337 108.252 6.79723 108.509 6.8718V12.1541C108.219 12.0547 107.838 11.976 107.366 11.918C106.902 11.86 106.487 11.831 106.123 11.831C105.402 11.831 104.751 11.9925 104.171 12.3157C103.6 12.6306 103.148 13.0739 102.817 13.6456C102.493 14.209 102.332 14.8719 102.332 15.6342V26H96.2541ZM122.65 6.90909V11.3835H110.606V6.90909H122.65ZM113.13 2.33523H119.207V19.9968C119.207 20.3697 119.265 20.6721 119.381 20.9041C119.506 21.1278 119.684 21.2894 119.916 21.3888C120.148 21.48 120.425 21.5256 120.749 21.5256C120.981 21.5256 121.225 21.5049 121.482 21.4634C121.747 21.4137 121.946 21.3723 122.078 21.3391L122.998 25.7266C122.708 25.8094 122.298 25.913 121.768 26.0373C121.246 26.1616 120.62 26.2403 119.891 26.2734C118.466 26.3397 117.244 26.174 116.224 25.7763C115.213 25.3703 114.439 24.7405 113.9 23.8871C113.37 23.0336 113.113 21.9606 113.13 20.668V2.33523ZM134.47 26.3604C132.473 26.3604 130.75 25.9669 129.3 25.1797C127.858 24.3842 126.748 23.2532 125.969 21.7866C125.198 20.3117 124.813 18.5592 124.813 16.5291C124.813 14.5571 125.202 12.8336 125.981 11.3587C126.76 9.87547 127.858 8.72372 129.275 7.90341C130.692 7.07481 132.361 6.66051 134.284 6.66051C135.643 6.66051 136.885 6.8718 138.012 7.29439C139.139 7.71697 140.113 8.34257 140.933 9.17116C141.753 9.99976 142.391 11.0231 142.847 12.2411C143.303 13.4509 143.531 14.8388 143.531 16.4048V17.9212H126.938V14.3913H137.876C137.867 13.745 137.714 13.1692 137.416 12.6637C137.117 12.1583 136.707 11.7647 136.185 11.483C135.672 11.1929 135.079 11.0479 134.408 11.0479C133.728 11.0479 133.119 11.2012 132.581 11.5078C132.042 11.8061 131.616 12.2163 131.301 12.7383C130.986 13.252 130.82 13.8362 130.804 14.4908V18.0827C130.804 18.8616 130.957 19.5452 131.263 20.1335C131.57 20.7135 132.005 21.1651 132.568 21.4883C133.132 21.8114 133.803 21.973 134.582 21.973C135.121 21.973 135.609 21.8984 136.049 21.7493C136.488 21.6001 136.865 21.3806 137.18 21.0906C137.494 20.8005 137.731 20.4442 137.888 20.0217L143.469 20.1832C143.237 21.4344 142.727 22.524 141.94 23.4521C141.161 24.3718 140.138 25.0885 138.87 25.6023C137.602 26.1077 136.136 26.3604 134.47 26.3604ZM152.713 15.1122V26H146.635V6.90909H152.414V10.4141H152.626C153.048 9.24574 153.769 8.33014 154.788 7.66726C155.808 6.99609 157.021 6.66051 158.43 6.66051C159.772 6.66051 160.937 6.96295 161.923 7.56783C162.917 8.16442 163.688 9.0013 164.234 10.0785C164.79 11.1474 165.063 12.3986 165.055 13.832V26H158.977V15.0252C158.985 13.9646 158.716 13.136 158.169 12.5394C157.63 11.9428 156.881 11.6445 155.919 11.6445C155.281 11.6445 154.718 11.7854 154.229 12.0671C153.748 12.3406 153.376 12.7341 153.11 13.2479C152.854 13.7616 152.721 14.383 152.713 15.1122ZM175.069 0.545454H181.943L187.324 11.1971H187.548L192.93 0.545454H199.803L190.494 17.4986V26H184.379V17.4986L175.069 0.545454ZM206.884 26.3604C204.879 26.3604 203.156 25.9503 201.714 25.13C200.28 24.3014 199.174 23.1496 198.395 21.6747C197.625 20.1915 197.24 18.4722 197.24 16.5167C197.24 14.5529 197.625 12.8336 198.395 11.3587C199.174 9.87547 200.28 8.72372 201.714 7.90341C203.156 7.07481 204.879 6.66051 206.884 6.66051C208.89 6.66051 210.609 7.07481 212.042 7.90341C213.484 8.72372 214.59 9.87547 215.361 11.3587C216.14 12.8336 216.529 14.5529 216.529 16.5167C216.529 18.4722 216.14 20.1915 215.361 21.6747C214.59 23.1496 213.484 24.3014 212.042 25.13C210.609 25.9503 208.89 26.3604 206.884 26.3604ZM206.922 21.7741C207.651 21.7741 208.268 21.5504 208.774 21.103C209.279 20.6555 209.664 20.0341 209.93 19.2386C210.203 18.4432 210.34 17.5234 210.34 16.4794C210.34 15.4188 210.203 14.4908 209.93 13.6953C209.664 12.8999 209.279 12.2784 208.774 11.831C208.268 11.3835 207.651 11.1598 206.922 11.1598C206.168 11.1598 205.53 11.3835 205.008 11.831C204.494 12.2784 204.1 12.8999 203.827 13.6953C203.562 14.4908 203.429 15.4188 203.429 16.4794C203.429 17.5234 203.562 18.4432 203.827 19.2386C204.1 20.0341 204.494 20.6555 205.008 21.103C205.53 21.5504 206.168 21.7741 206.922 21.7741ZM231.96 17.7596V6.90909H238.025V26H232.233V22.4453H232.034C231.612 23.6136 230.891 24.5417 229.872 25.2294C228.861 25.9089 227.639 26.2486 226.205 26.2486C224.904 26.2486 223.761 25.9503 222.775 25.3537C221.789 24.7571 221.022 23.9244 220.476 22.8555C219.929 21.7783 219.651 20.5188 219.643 19.0771V6.90909H225.721V17.8839C225.729 18.9196 226.002 19.7358 226.541 20.3324C227.079 20.929 227.813 21.2273 228.741 21.2273C229.346 21.2273 229.888 21.0947 230.369 20.8295C230.858 20.5561 231.243 20.1625 231.525 19.6488C231.815 19.1268 231.96 18.497 231.96 17.7596ZM241.894 26V6.90909H247.798V10.3892H247.996C248.344 9.12973 248.912 8.19342 249.699 7.58025C250.486 6.95881 251.402 6.64808 252.446 6.64808C252.728 6.64808 253.018 6.6688 253.316 6.71023C253.614 6.74337 253.892 6.79723 254.149 6.8718V12.1541C253.859 12.0547 253.478 11.976 253.005 11.918C252.541 11.86 252.127 11.831 251.762 11.831C251.041 11.831 250.391 11.9925 249.811 12.3157C249.239 12.6306 248.788 13.0739 248.456 13.6456C248.133 14.209 247.972 14.8719 247.972 15.6342V26H241.894ZM0.533883 67V41.5455H6.68623V62.0036H17.2757V67H0.533883ZM29.3722 67.3604C27.367 67.3604 25.6435 66.9503 24.2018 66.13C22.7683 65.3014 21.6621 64.1496 20.8832 62.6747C20.1126 61.1915 19.7273 59.4722 19.7273 57.5167C19.7273 55.5529 20.1126 53.8336 20.8832 52.3587C21.6621 50.8755 22.7683 49.7237 24.2018 48.9034C25.6435 48.0748 27.367 47.6605 29.3722 47.6605C31.3774 47.6605 33.0968 48.0748 34.5302 48.9034C35.972 49.7237 37.0782 50.8755 37.8488 52.3587C38.6277 53.8336 39.0171 55.5529 39.0171 57.5167C39.0171 59.4722 38.6277 61.1915 37.8488 62.6747C37.0782 64.1496 35.972 65.3014 34.5302 66.13C33.0968 66.9503 31.3774 67.3604 29.3722 67.3604ZM29.4095 62.7741C30.1387 62.7741 30.756 62.5504 31.2614 62.103C31.7669 61.6555 32.1522 61.0341 32.4173 60.2386C32.6908 59.4432 32.8275 58.5234 32.8275 57.4794C32.8275 56.4188 32.6908 55.4908 32.4173 54.6953C32.1522 53.8999 31.7669 53.2784 31.2614 52.831C30.756 52.3835 30.1387 52.1598 29.4095 52.1598C28.6555 52.1598 28.0175 52.3835 27.4954 52.831C26.9817 53.2784 26.5881 53.8999 26.3147 54.6953C26.0495 55.4908 25.917 56.4188 25.917 57.4794C25.917 58.5234 26.0495 59.4432 26.3147 60.2386C26.5881 61.0341 26.9817 61.6555 27.4954 62.103C28.0175 62.5504 28.6555 62.7741 29.4095 62.7741ZM51.0421 67.3604C49.0369 67.3604 47.3134 66.9503 45.8717 66.13C44.4382 65.3014 43.332 64.1496 42.5531 62.6747C41.7826 61.1915 41.3973 59.4722 41.3973 57.5167C41.3973 55.5529 41.7826 53.8336 42.5531 52.3587C43.332 50.8755 44.4382 49.7237 45.8717 48.9034C47.3134 48.0748 49.0369 47.6605 51.0421 47.6605C53.0473 47.6605 54.7667 48.0748 56.2002 48.9034C57.6419 49.7237 58.7481 50.8755 59.5187 52.3587C60.2976 53.8336 60.687 55.5529 60.687 57.5167C60.687 59.4722 60.2976 61.1915 59.5187 62.6747C58.7481 64.1496 57.6419 65.3014 56.2002 66.13C54.7667 66.9503 53.0473 67.3604 51.0421 67.3604ZM51.0794 62.7741C51.8086 62.7741 52.4259 62.5504 52.9313 62.103C53.4368 61.6555 53.8221 61.0341 54.0872 60.2386C54.3607 59.4432 54.4974 58.5234 54.4974 57.4794C54.4974 56.4188 54.3607 55.4908 54.0872 54.6953C53.8221 53.8999 53.4368 53.2784 52.9313 52.831C52.4259 52.3835 51.8086 52.1598 51.0794 52.1598C50.3254 52.1598 49.6874 52.3835 49.1654 52.831C48.6516 53.2784 48.258 53.8999 47.9846 54.6953C47.7195 55.4908 47.5869 56.4188 47.5869 57.4794C47.5869 58.5234 47.7195 59.4432 47.9846 60.2386C48.258 61.0341 48.6516 61.6555 49.1654 62.103C49.6874 62.5504 50.3254 62.7741 51.0794 62.7741ZM72.7121 67.3604C70.7069 67.3604 68.9834 66.9503 67.5416 66.13C66.1081 65.3014 65.002 64.1496 64.2231 62.6747C63.4525 61.1915 63.0672 59.4722 63.0672 57.5167C63.0672 55.5529 63.4525 53.8336 64.2231 52.3587C65.002 50.8755 66.1081 49.7237 67.5416 48.9034C68.9834 48.0748 70.7069 47.6605 72.7121 47.6605C74.7173 47.6605 76.4366 48.0748 77.8701 48.9034C79.3118 49.7237 80.418 50.8755 81.1886 52.3587C81.9675 53.8336 82.3569 55.5529 82.3569 57.5167C82.3569 59.4722 81.9675 61.1915 81.1886 62.6747C80.418 64.1496 79.3118 65.3014 77.8701 66.13C76.4366 66.9503 74.7173 67.3604 72.7121 67.3604ZM72.7493 62.7741C73.4785 62.7741 74.0958 62.5504 74.6013 62.103C75.1067 61.6555 75.492 61.0341 75.7572 60.2386C76.0306 59.4432 76.1673 58.5234 76.1673 57.4794C76.1673 56.4188 76.0306 55.4908 75.7572 54.6953C75.492 53.8999 75.1067 53.2784 74.6013 52.831C74.0958 52.3835 73.4785 52.1598 72.7493 52.1598C71.9953 52.1598 71.3573 52.3835 70.8353 52.831C70.3216 53.2784 69.928 53.8999 69.6545 54.6953C69.3894 55.4908 69.2568 56.4188 69.2568 57.4794C69.2568 58.5234 69.3894 59.4432 69.6545 60.2386C69.928 61.0341 70.3216 61.6555 70.8353 62.103C71.3573 62.5504 71.9953 62.7741 72.7493 62.7741ZM94.382 67.3604C92.3768 67.3604 90.6533 66.9503 89.2115 66.13C87.7781 65.3014 86.6719 64.1496 85.893 62.6747C85.1224 61.1915 84.7371 59.4722 84.7371 57.5167C84.7371 55.5529 85.1224 53.8336 85.893 52.3587C86.6719 50.8755 87.7781 49.7237 89.2115 48.9034C90.6533 48.0748 92.3768 47.6605 94.382 47.6605C96.3872 47.6605 98.1065 48.0748 99.54 48.9034C100.982 49.7237 102.088 50.8755 102.859 52.3587C103.637 53.8336 104.027 55.5529 104.027 57.5167C104.027 59.4722 103.637 61.1915 102.859 62.6747C102.088 64.1496 100.982 65.3014 99.54 66.13C98.1065 66.9503 96.3872 67.3604 94.382 67.3604ZM94.4193 62.7741C95.1484 62.7741 95.7657 62.5504 96.2712 62.103C96.7766 61.6555 97.1619 61.0341 97.4271 60.2386C97.7005 59.4432 97.8372 58.5234 97.8372 57.4794C97.8372 56.4188 97.7005 55.4908 97.4271 54.6953C97.1619 53.8999 96.7766 53.2784 96.2712 52.831C95.7657 52.3835 95.1484 52.1598 94.4193 52.1598C93.6652 52.1598 93.0272 52.3835 92.5052 52.831C91.9915 53.2784 91.5979 53.8999 91.3245 54.6953C91.0593 55.4908 90.9267 56.4188 90.9267 57.4794C90.9267 58.5234 91.0593 59.4432 91.3245 60.2386C91.5979 61.0341 91.9915 61.6555 92.5052 62.103C93.0272 62.5504 93.6652 62.7741 94.4193 62.7741ZM113.218 56.1122V67H107.14V47.9091H112.92V51.4141H113.131C113.554 50.2457 114.275 49.3301 115.294 48.6673C116.313 47.9961 117.527 47.6605 118.935 47.6605C120.278 47.6605 121.442 47.9629 122.428 48.5678C123.422 49.1644 124.193 50.0013 124.74 51.0785C125.295 52.1474 125.568 53.3986 125.56 54.832V67H119.482V56.0252C119.491 54.9646 119.221 54.136 118.674 53.5394C118.136 52.9428 117.386 52.6445 116.425 52.6445C115.787 52.6445 115.223 52.7854 114.734 53.0671C114.254 53.3406 113.881 53.7341 113.616 54.2479C113.359 54.7616 113.226 55.383 113.218 56.1122ZM138.222 74.5568C136.407 74.5568 134.854 74.3041 133.561 73.7987C132.269 73.2932 131.254 72.6013 130.516 71.723C129.779 70.8447 129.335 69.8504 129.186 68.7401L134.941 68.4169C135.049 68.8063 135.247 69.1461 135.537 69.4361C135.836 69.7261 136.221 69.9498 136.693 70.1072C137.174 70.2647 137.737 70.3434 138.384 70.3434C139.403 70.3434 140.244 70.0948 140.907 69.5977C141.578 69.1088 141.914 68.2512 141.914 67.0249V63.669H141.702C141.462 64.2573 141.097 64.7835 140.608 65.2475C140.12 65.7115 139.511 66.0761 138.781 66.3413C138.061 66.6064 137.232 66.739 136.296 66.739C134.904 66.739 133.628 66.4158 132.467 65.7695C131.316 65.1149 130.392 64.104 129.696 62.7369C129.008 61.3614 128.664 59.5923 128.664 57.4297C128.664 55.2008 129.021 53.3654 129.733 51.9237C130.446 50.4736 131.378 49.4006 132.53 48.7045C133.69 48.0085 134.937 47.6605 136.271 47.6605C137.273 47.6605 138.131 47.8345 138.844 48.1825C139.564 48.5223 140.157 48.9614 140.621 49.5C141.085 50.0386 141.437 50.5979 141.677 51.1779H141.851V47.9091H147.904V67.0746C147.904 68.6903 147.498 70.0534 146.686 71.1637C145.874 72.274 144.739 73.1151 143.281 73.6868C141.822 74.2668 140.136 74.5568 138.222 74.5568ZM138.409 62.3143C139.146 62.3143 139.776 62.1196 140.298 61.7301C140.82 61.3407 141.222 60.7814 141.503 60.0522C141.785 59.323 141.926 58.4489 141.926 57.4297C141.926 56.3939 141.785 55.5032 141.503 54.7575C141.23 54.0034 140.828 53.4234 140.298 53.0174C139.776 52.6114 139.146 52.4084 138.409 52.4084C137.655 52.4084 137.016 52.6155 136.494 53.0298C135.972 53.4441 135.575 54.0283 135.301 54.7823C135.036 55.5281 134.904 56.4105 134.904 57.4297C134.904 58.4489 135.04 59.323 135.314 60.0522C135.587 60.7814 135.981 61.3407 136.494 61.7301C137.016 62.1196 137.655 62.3143 138.409 62.3143ZM159.299 67V41.5455H165.451V62.0036H176.04V67H159.299ZM179.225 67V47.9091H185.303V67H179.225ZM182.27 45.6843C181.417 45.6843 180.684 45.4026 180.07 44.8391C179.457 44.2674 179.151 43.5797 179.151 42.7759C179.151 41.9805 179.457 41.301 180.07 40.7376C180.684 40.1658 181.417 39.88 182.27 39.88C183.132 39.88 183.865 40.1658 184.47 40.7376C185.083 41.301 185.39 41.9805 185.39 42.7759C185.39 43.5797 185.083 44.2674 184.47 44.8391C183.865 45.4026 183.132 45.6843 182.27 45.6843ZM195.249 56.1122V67H189.172V47.9091H194.951V51.4141H195.162C195.585 50.2457 196.306 49.3301 197.325 48.6673C198.344 47.9961 199.558 47.6605 200.967 47.6605C202.309 47.6605 203.473 47.9629 204.459 48.5678C205.454 49.1644 206.224 50.0013 206.771 51.0785C207.326 52.1474 207.6 53.3986 207.591 54.832V67H201.514V56.0252C201.522 54.9646 201.253 54.136 200.706 53.5394C200.167 52.9428 199.417 52.6445 198.456 52.6445C197.818 52.6445 197.255 52.7854 196.766 53.0671C196.285 53.3406 195.912 53.7341 195.647 54.2479C195.39 54.7616 195.258 55.383 195.249 56.1122ZM216.835 61.9911L216.86 54.745H217.705L223.075 47.9091H229.96L221.981 57.7031H220.378L216.835 61.9911ZM211.354 67V41.5455H217.432V67H211.354ZM223.211 67L218.215 59.0703L222.217 54.7575L230.234 67H223.211ZM248.803 53.7383L243.222 53.8874C243.164 53.4897 243.007 53.1375 242.75 52.831C242.493 52.5161 242.157 52.2717 241.743 52.0977C241.337 51.9154 240.865 51.8242 240.326 51.8242C239.622 51.8242 239.021 51.9651 238.524 52.2468C238.035 52.5285 237.795 52.9097 237.803 53.3903C237.795 53.7631 237.944 54.0863 238.251 54.3597C238.565 54.6332 239.125 54.8527 239.928 55.0185L243.607 55.7145C245.513 56.0791 246.93 56.6839 247.858 57.5291C248.794 58.3743 249.267 59.4929 249.275 60.8849C249.267 62.1941 248.877 63.3335 248.107 64.3029C247.344 65.2724 246.3 66.0264 244.975 66.565C243.649 67.0953 242.132 67.3604 240.426 67.3604C237.699 67.3604 235.549 66.8011 233.975 65.6825C232.409 64.5556 231.514 63.0476 231.29 61.1584L237.293 61.0092C237.426 61.7053 237.77 62.2356 238.325 62.6001C238.88 62.9647 239.589 63.147 240.45 63.147C241.229 63.147 241.863 63.002 242.352 62.712C242.841 62.422 243.09 62.0367 243.098 61.5561C243.09 61.1252 242.899 60.7814 242.526 60.5245C242.153 60.2594 241.569 60.0522 240.774 59.9031L237.443 59.2692C235.529 58.9212 234.103 58.279 233.167 57.3427C232.231 56.3981 231.767 55.1966 231.775 53.7383C231.767 52.4622 232.106 51.3726 232.794 50.4695C233.482 49.558 234.46 48.862 235.727 48.3814C236.995 47.9008 238.491 47.6605 240.214 47.6605C242.8 47.6605 244.838 48.2032 246.329 49.2887C247.821 50.3659 248.645 51.8491 248.803 53.7383ZM263.205 67.3604C262.31 67.3604 261.543 67.0456 260.905 66.4158C260.276 65.7861 259.965 65.0238 259.973 64.1289C259.965 63.2506 260.276 62.5007 260.905 61.8793C261.543 61.2495 262.31 60.9347 263.205 60.9347C264.05 60.9347 264.796 61.2495 265.442 61.8793C266.097 62.5007 266.428 63.2506 266.436 64.1289C266.428 64.7255 266.271 65.2682 265.964 65.7571C265.666 66.246 265.272 66.6354 264.783 66.9254C264.303 67.2154 263.777 67.3604 263.205 67.3604ZM263.205 54.2603C262.31 54.2603 261.543 53.9496 260.905 53.3281C260.276 52.6984 259.965 51.9319 259.973 51.0288C259.965 50.1504 260.276 49.4006 260.905 48.7791C261.543 48.1494 262.31 47.8345 263.205 47.8345C264.05 47.8345 264.796 48.1494 265.442 48.7791C266.097 49.4006 266.428 50.1504 266.436 51.0288C266.428 51.6254 266.271 52.1681 265.964 52.657C265.666 53.1458 265.272 53.5353 264.783 53.8253C264.303 54.1153 263.777 54.2603 263.205 54.2603ZM280.257 56.9822C280.257 60.0481 279.843 62.8736 279.014 65.4588C278.186 68.0357 276.893 70.4304 275.137 72.6428H269.245C269.916 71.8224 270.534 70.824 271.097 69.6474C271.669 68.4708 272.162 67.1823 272.576 65.782C272.999 64.3816 273.326 62.9316 273.558 61.4318C273.798 59.9321 273.919 58.4489 273.919 56.9822C273.919 55.0185 273.716 53.0423 273.31 51.0536C272.904 49.0567 272.348 47.2089 271.644 45.5103C270.94 43.8034 270.14 42.4031 269.245 41.3093H275.137C276.893 43.5217 278.186 45.9205 279.014 48.5057C279.843 51.0826 280.257 53.9081 280.257 56.9822Z" fill="url(#paint0_linear_1_202)"/>
<defs>
<linearGradient id="paint0_linear_1_202" x1="-24.3767" y1="57.79" x2="308.806" y2="55.8307" gradientUnits="userSpaceOnUse">
<stop stop-color="#144EE3"/>
<stop offset="0.1875" stop-color="#EB568E"/>
<stop offset="0.640625" stop-color="#A353AA"/>
<stop offset="1" stop-color="#144EE3"/>
</linearGradient>
</defs>
</svg>
